<mxfile host="Electron" agent="Mozilla/5.0 (Windows NT 10.0; Win64; x64) AppleWebKit/537.36 (KHTML, like Gecko) draw.io/26.2.2 Chrome/134.0.6998.178 Electron/35.1.2 Safari/537.36" version="26.2.2">
  <diagram name="Page-1" id="cdR3yimcFpgnN0BHvAG8">
    <mxGraphModel dx="960" dy="716" grid="1" gridSize="10" guides="1" tooltips="1" connect="1" arrows="1" fold="1" page="1" pageScale="1" pageWidth="850" pageHeight="1100" math="0" shadow="0">
      <root>
        <mxCell id="0" />
        <mxCell id="1" parent="0" />
        <mxCell id="zwSsYxOrrxA8A5VseKba-1" value="&lt;font style=&quot;font-weight: bold; font-size: 15px;&quot;&gt;Integration Model &lt;/font&gt;&lt;font style=&quot;font-size: 10px;&quot;&gt;(How Tables are Related)&lt;/font&gt;" style="text;strokeColor=none;fillColor=none;align=left;verticalAlign=middle;spacingLeft=4;spacingRight=4;overflow=hidden;points=[[0,0.5],[1,0.5]];portConstraint=eastwest;rotatable=0;whiteSpace=wrap;html=1;" parent="1" vertex="1">
          <mxGeometry width="140" height="40" as="geometry" />
        </mxCell>
        <mxCell id="zwSsYxOrrxA8A5VseKba-70" style="edgeStyle=orthogonalEdgeStyle;rounded=0;orthogonalLoop=1;jettySize=auto;html=1;entryX=0;entryY=0.75;entryDx=0;entryDy=0;" parent="1" source="zwSsYxOrrxA8A5VseKba-13" target="zwSsYxOrrxA8A5VseKba-52" edge="1">
          <mxGeometry relative="1" as="geometry" />
        </mxCell>
        <mxCell id="zwSsYxOrrxA8A5VseKba-13" value="crm_prd_info" style="swimlane;fontStyle=1;childLayout=stackLayout;horizontal=1;startSize=30;horizontalStack=0;resizeParent=1;resizeParentMax=0;resizeLast=0;collapsible=1;marginBottom=0;whiteSpace=wrap;html=1;rounded=1;swimlaneLine=1;fillColor=#1ba1e2;strokeColor=#006EAF;fontColor=#ffffff;fontSize=19;" parent="1" vertex="1">
          <mxGeometry x="367.5" y="420" width="170" height="60" as="geometry" />
        </mxCell>
        <mxCell id="zwSsYxOrrxA8A5VseKba-14" value="cat_id" style="text;strokeColor=#82b366;fillColor=#d5e8d4;align=left;verticalAlign=middle;spacingLeft=4;spacingRight=4;overflow=hidden;points=[[0,0.5],[1,0.5]];portConstraint=eastwest;rotatable=0;whiteSpace=wrap;html=1;fontSize=19;fontStyle=1;gradientColor=#009900;" parent="zwSsYxOrrxA8A5VseKba-13" vertex="1">
          <mxGeometry y="30" width="170" height="30" as="geometry" />
        </mxCell>
        <mxCell id="zwSsYxOrrxA8A5VseKba-15" value="&lt;font style=&quot;font-size: 14px;&quot;&gt;Current &amp;amp; history Product Information&lt;/font&gt;" style="text;strokeColor=none;fillColor=none;align=left;verticalAlign=middle;spacingLeft=4;spacingRight=4;overflow=hidden;points=[[0,0.5],[1,0.5]];portConstraint=eastwest;rotatable=0;whiteSpace=wrap;html=1;" parent="1" vertex="1">
          <mxGeometry x="362.5" y="380" width="175" height="40" as="geometry" />
        </mxCell>
        <mxCell id="zwSsYxOrrxA8A5VseKba-69" style="edgeStyle=orthogonalEdgeStyle;rounded=0;orthogonalLoop=1;jettySize=auto;html=1;entryX=0;entryY=0.5;entryDx=0;entryDy=0;" parent="1" source="zwSsYxOrrxA8A5VseKba-22" target="zwSsYxOrrxA8A5VseKba-61" edge="1">
          <mxGeometry relative="1" as="geometry" />
        </mxCell>
        <mxCell id="zwSsYxOrrxA8A5VseKba-22" value="crm_sales_details" style="swimlane;fontStyle=1;childLayout=stackLayout;horizontal=1;startSize=30;horizontalStack=0;resizeParent=1;resizeParentMax=0;resizeLast=0;collapsible=1;marginBottom=0;whiteSpace=wrap;html=1;rounded=1;swimlaneLine=1;fillColor=#1ba1e2;strokeColor=#006EAF;fontColor=#ffffff;fontSize=19;" parent="1" vertex="1">
          <mxGeometry x="100" y="230" width="190" height="102" as="geometry" />
        </mxCell>
        <mxCell id="zwSsYxOrrxA8A5VseKba-23" value="cust_id" style="text;fillColor=#76608a;align=left;verticalAlign=middle;spacingLeft=4;spacingRight=4;overflow=hidden;points=[[0,0.5],[1,0.5]];portConstraint=eastwest;rotatable=0;whiteSpace=wrap;html=1;fontSize=19;fontStyle=1;fontColor=#ffffff;strokeColor=#432D57;" parent="zwSsYxOrrxA8A5VseKba-22" vertex="1">
          <mxGeometry y="30" width="190" height="36" as="geometry" />
        </mxCell>
        <mxCell id="zwSsYxOrrxA8A5VseKba-31" value="prd-key" style="text;strokeColor=#82b366;fillColor=#d5e8d4;align=left;verticalAlign=middle;spacingLeft=4;spacingRight=4;overflow=hidden;points=[[0,0.5],[1,0.5]];portConstraint=eastwest;rotatable=0;whiteSpace=wrap;html=1;fontSize=19;fontStyle=1;gradientColor=#009900;" parent="zwSsYxOrrxA8A5VseKba-22" vertex="1">
          <mxGeometry y="66" width="190" height="36" as="geometry" />
        </mxCell>
        <mxCell id="zwSsYxOrrxA8A5VseKba-24" value="&lt;font style=&quot;font-size: 14px;&quot;&gt;Transactional Records about Sales &amp;amp; Orders&lt;/font&gt;" style="text;strokeColor=none;fillColor=none;align=left;verticalAlign=middle;spacingLeft=4;spacingRight=4;overflow=hidden;points=[[0,0.5],[1,0.5]];portConstraint=eastwest;rotatable=0;whiteSpace=wrap;html=1;" parent="1" vertex="1">
          <mxGeometry x="100" y="180" width="170" height="50" as="geometry" />
        </mxCell>
        <mxCell id="zwSsYxOrrxA8A5VseKba-33" style="edgeStyle=orthogonalEdgeStyle;rounded=0;orthogonalLoop=1;jettySize=auto;html=1;entryX=0;entryY=0.5;entryDx=0;entryDy=0;" parent="1" source="zwSsYxOrrxA8A5VseKba-31" target="zwSsYxOrrxA8A5VseKba-14" edge="1">
          <mxGeometry relative="1" as="geometry" />
        </mxCell>
        <mxCell id="zwSsYxOrrxA8A5VseKba-66" style="edgeStyle=orthogonalEdgeStyle;rounded=0;orthogonalLoop=1;jettySize=auto;html=1;entryX=1;entryY=0.75;entryDx=0;entryDy=0;" parent="1" source="zwSsYxOrrxA8A5VseKba-34" target="zwSsYxOrrxA8A5VseKba-61" edge="1">
          <mxGeometry relative="1" as="geometry" />
        </mxCell>
        <mxCell id="zwSsYxOrrxA8A5VseKba-34" value="erp_cust_az12" style="swimlane;fontStyle=1;childLayout=stackLayout;horizontal=1;startSize=30;horizontalStack=0;resizeParent=1;resizeParentMax=0;resizeLast=0;collapsible=1;marginBottom=0;whiteSpace=wrap;html=1;rounded=1;swimlaneLine=1;fillColor=#1ba1e2;strokeColor=#006EAF;fontColor=#ffffff;fontSize=19;" parent="1" vertex="1">
          <mxGeometry x="755" y="290" width="160" height="66" as="geometry" />
        </mxCell>
        <mxCell id="zwSsYxOrrxA8A5VseKba-36" value="&lt;font style=&quot;font-size: 14px;&quot;&gt;Extrta Customer Information(BirthDate)&lt;/font&gt;" style="text;strokeColor=none;fillColor=none;align=left;verticalAlign=middle;spacingLeft=4;spacingRight=4;overflow=hidden;points=[[0,0.5],[1,0.5]];portConstraint=eastwest;rotatable=0;whiteSpace=wrap;html=1;" parent="1" vertex="1">
          <mxGeometry x="755" y="250" width="170" height="40" as="geometry" />
        </mxCell>
        <mxCell id="zwSsYxOrrxA8A5VseKba-35" value="CID" style="text;strokeColor=#C73500;fillColor=#fa6800;align=left;verticalAlign=middle;spacingLeft=4;spacingRight=4;overflow=hidden;points=[[0,0.5],[1,0.5]];portConstraint=eastwest;rotatable=0;whiteSpace=wrap;html=1;fontSize=19;fontStyle=1;fontColor=#000000;" parent="1" vertex="1">
          <mxGeometry x="755" y="320" width="160" height="36" as="geometry" />
        </mxCell>
        <mxCell id="zwSsYxOrrxA8A5VseKba-45" value="erp_loc_a101" style="swimlane;fontStyle=1;childLayout=stackLayout;horizontal=1;startSize=30;horizontalStack=0;resizeParent=1;resizeParentMax=0;resizeLast=0;collapsible=1;marginBottom=0;whiteSpace=wrap;html=1;rounded=1;swimlaneLine=1;fillColor=#1ba1e2;strokeColor=#006EAF;fontColor=#ffffff;fontSize=19;" parent="1" vertex="1">
          <mxGeometry x="750" y="145" width="160" height="66" as="geometry" />
        </mxCell>
        <mxCell id="zwSsYxOrrxA8A5VseKba-47" value="CID" style="text;strokeColor=#C73500;fillColor=#fa6800;align=left;verticalAlign=middle;spacingLeft=4;spacingRight=4;overflow=hidden;points=[[0,0.5],[1,0.5]];portConstraint=eastwest;rotatable=0;whiteSpace=wrap;html=1;fontSize=19;fontStyle=1;fontColor=#000000;" parent="zwSsYxOrrxA8A5VseKba-45" vertex="1">
          <mxGeometry y="30" width="160" height="36" as="geometry" />
        </mxCell>
        <mxCell id="zwSsYxOrrxA8A5VseKba-46" value="&lt;span style=&quot;font-size: 14px;&quot;&gt;Coustomer Country&lt;/span&gt;" style="text;strokeColor=none;fillColor=none;align=left;verticalAlign=middle;spacingLeft=4;spacingRight=4;overflow=hidden;points=[[0,0.5],[1,0.5]];portConstraint=eastwest;rotatable=0;whiteSpace=wrap;html=1;" parent="1" vertex="1">
          <mxGeometry x="750" y="107" width="170" height="40" as="geometry" />
        </mxCell>
        <mxCell id="zwSsYxOrrxA8A5VseKba-52" value="erp_px_cat_g1v2" style="swimlane;fontStyle=1;childLayout=stackLayout;horizontal=1;startSize=30;horizontalStack=0;resizeParent=1;resizeParentMax=0;resizeLast=0;collapsible=1;marginBottom=0;whiteSpace=wrap;html=1;rounded=1;swimlaneLine=1;fillColor=#1ba1e2;strokeColor=#006EAF;fontColor=#ffffff;fontSize=19;" parent="1" vertex="1">
          <mxGeometry x="745" y="426" width="180" height="66" as="geometry" />
        </mxCell>
        <mxCell id="zwSsYxOrrxA8A5VseKba-53" value="ID" style="text;strokeColor=#82b366;fillColor=#d5e8d4;align=left;verticalAlign=middle;spacingLeft=4;spacingRight=4;overflow=hidden;points=[[0,0.5],[1,0.5]];portConstraint=eastwest;rotatable=0;whiteSpace=wrap;html=1;fontSize=19;fontStyle=1;gradientColor=#009900;" parent="zwSsYxOrrxA8A5VseKba-52" vertex="1">
          <mxGeometry y="30" width="180" height="36" as="geometry" />
        </mxCell>
        <mxCell id="zwSsYxOrrxA8A5VseKba-54" value="&lt;font style=&quot;font-size: 14px;&quot;&gt;Current &amp;amp; history Product Information&lt;/font&gt;" style="text;strokeColor=none;fillColor=none;align=left;verticalAlign=middle;spacingLeft=4;spacingRight=4;overflow=hidden;points=[[0,0.5],[1,0.5]];portConstraint=eastwest;rotatable=0;whiteSpace=wrap;html=1;" parent="1" vertex="1">
          <mxGeometry x="740" y="390" width="175" height="36" as="geometry" />
        </mxCell>
        <mxCell id="zwSsYxOrrxA8A5VseKba-61" value="crm_cust_info" style="swimlane;fontStyle=1;childLayout=stackLayout;horizontal=1;startSize=30;horizontalStack=0;resizeParent=1;resizeParentMax=0;resizeLast=0;collapsible=1;marginBottom=0;whiteSpace=wrap;html=1;rounded=1;swimlaneLine=1;fillColor=#1ba1e2;strokeColor=#006EAF;fontColor=#ffffff;fontSize=19;" parent="1" vertex="1">
          <mxGeometry x="370" y="174" width="160" height="102" as="geometry" />
        </mxCell>
        <mxCell id="zwSsYxOrrxA8A5VseKba-68" value="cst_id" style="text;fillColor=none;align=left;verticalAlign=middle;spacingLeft=4;spacingRight=4;overflow=hidden;points=[[0,0.5],[1,0.5]];portConstraint=eastwest;rotatable=0;whiteSpace=wrap;html=1;fontSize=19;fontStyle=1;" parent="zwSsYxOrrxA8A5VseKba-61" vertex="1">
          <mxGeometry y="30" width="160" height="36" as="geometry" />
        </mxCell>
        <mxCell id="zwSsYxOrrxA8A5VseKba-62" value="cst_key" style="text;strokeColor=#C73500;fillColor=#fa6800;align=left;verticalAlign=middle;spacingLeft=4;spacingRight=4;overflow=hidden;points=[[0,0.5],[1,0.5]];portConstraint=eastwest;rotatable=0;whiteSpace=wrap;html=1;fontSize=19;fontStyle=1;fontColor=#000000;" parent="zwSsYxOrrxA8A5VseKba-61" vertex="1">
          <mxGeometry y="66" width="160" height="36" as="geometry" />
        </mxCell>
        <mxCell id="zwSsYxOrrxA8A5VseKba-63" value="&lt;font style=&quot;font-size: 14px;&quot;&gt;Customer Information&lt;/font&gt;" style="text;strokeColor=none;fillColor=none;align=left;verticalAlign=middle;spacingLeft=4;spacingRight=4;overflow=hidden;points=[[0,0.5],[1,0.5]];portConstraint=eastwest;rotatable=0;whiteSpace=wrap;html=1;" parent="1" vertex="1">
          <mxGeometry x="375" y="144" width="150" height="30" as="geometry" />
        </mxCell>
        <mxCell id="zwSsYxOrrxA8A5VseKba-65" style="edgeStyle=orthogonalEdgeStyle;rounded=0;orthogonalLoop=1;jettySize=auto;html=1;entryX=1;entryY=0.75;entryDx=0;entryDy=0;" parent="1" source="zwSsYxOrrxA8A5VseKba-47" target="zwSsYxOrrxA8A5VseKba-61" edge="1">
          <mxGeometry relative="1" as="geometry" />
        </mxCell>
        <mxCell id="zwSsYxOrrxA8A5VseKba-75" value="" style="rounded=1;whiteSpace=wrap;html=1;arcSize=6;fillColor=none;dashed=1;" parent="1" vertex="1">
          <mxGeometry x="70" y="70" width="500" height="460" as="geometry" />
        </mxCell>
        <mxCell id="zwSsYxOrrxA8A5VseKba-76" value="&lt;font style=&quot;font-size: 22px;&quot;&gt;CRM&lt;/font&gt;" style="rounded=1;whiteSpace=wrap;html=1;fillColor=#6a00ff;strokeColor=#3700CC;fontColor=#ffffff;" parent="1" vertex="1">
          <mxGeometry x="270" y="47" width="120" height="60" as="geometry" />
        </mxCell>
        <mxCell id="zwSsYxOrrxA8A5VseKba-77" value="" style="rounded=1;whiteSpace=wrap;html=1;fillColor=none;dashed=1;arcSize=5;" parent="1" vertex="1">
          <mxGeometry x="600" y="50" width="380" height="500" as="geometry" />
        </mxCell>
        <mxCell id="zwSsYxOrrxA8A5VseKba-78" value="&lt;font style=&quot;font-size: 20px;&quot;&gt;ERP&lt;/font&gt;" style="rounded=1;whiteSpace=wrap;html=1;fillColor=#a20025;fontColor=#ffffff;strokeColor=#6F0000;" parent="1" vertex="1">
          <mxGeometry x="740" y="20" width="120" height="60" as="geometry" />
        </mxCell>
        <mxCell id="JckBF_CulE6L3QhNgT-t-1" value="&lt;font style=&quot;font-size: 15px;&quot;&gt;PRODUCT&lt;/font&gt;" style="text;align=center;verticalAlign=middle;spacingLeft=4;spacingRight=4;overflow=hidden;points=[[0,0.5],[1,0.5]];portConstraint=eastwest;rotatable=0;whiteSpace=wrap;html=1;fillColor=#6a00ff;strokeColor=#3700CC;fontColor=#ffffff;" vertex="1" parent="1">
          <mxGeometry x="745" y="492" width="175" height="18" as="geometry" />
        </mxCell>
        <mxCell id="JckBF_CulE6L3QhNgT-t-2" value="&lt;font style=&quot;font-size: 15px;&quot;&gt;PRODUCT&lt;/font&gt;" style="text;align=center;verticalAlign=middle;spacingLeft=4;spacingRight=4;overflow=hidden;points=[[0,0.5],[1,0.5]];portConstraint=eastwest;rotatable=0;whiteSpace=wrap;html=1;fillColor=#6a00ff;strokeColor=#3700CC;fontColor=#ffffff;" vertex="1" parent="1">
          <mxGeometry x="367.5" y="480" width="172.5" height="20" as="geometry" />
        </mxCell>
        <mxCell id="JckBF_CulE6L3QhNgT-t-3" value="&lt;font style=&quot;font-size: 16px;&quot;&gt;CUSTOMER&lt;/font&gt;" style="text;align=center;verticalAlign=middle;spacingLeft=4;spacingRight=4;overflow=hidden;points=[[0,0.5],[1,0.5]];portConstraint=eastwest;rotatable=0;whiteSpace=wrap;html=1;fillColor=#0050ef;strokeColor=#001DBC;fontColor=#ffffff;" vertex="1" parent="1">
          <mxGeometry x="752.5" y="356" width="160" height="24" as="geometry" />
        </mxCell>
        <mxCell id="JckBF_CulE6L3QhNgT-t-4" value="&lt;font style=&quot;font-size: 14px;&quot;&gt;CUSTOMER&lt;/font&gt;" style="text;align=center;verticalAlign=middle;spacingLeft=4;spacingRight=4;overflow=hidden;points=[[0,0.5],[1,0.5]];portConstraint=eastwest;rotatable=0;whiteSpace=wrap;html=1;fillColor=#0050ef;strokeColor=#001DBC;fontColor=#ffffff;" vertex="1" parent="1">
          <mxGeometry x="750" y="211" width="160" height="19" as="geometry" />
        </mxCell>
        <mxCell id="JckBF_CulE6L3QhNgT-t-5" value="&lt;font style=&quot;font-size: 14px;&quot;&gt;SALES&lt;/font&gt;" style="text;align=center;verticalAlign=middle;spacingLeft=4;spacingRight=4;overflow=hidden;points=[[0,0.5],[1,0.5]];portConstraint=eastwest;rotatable=0;whiteSpace=wrap;html=1;fillColor=#f0a30a;strokeColor=#BD7000;fontColor=#000000;" vertex="1" parent="1">
          <mxGeometry x="100" y="332" width="190" height="18" as="geometry" />
        </mxCell>
        <mxCell id="JckBF_CulE6L3QhNgT-t-6" value="&lt;font style=&quot;font-size: 16px;&quot;&gt;CUSTOMER&lt;/font&gt;" style="text;align=center;verticalAlign=middle;spacingLeft=4;spacingRight=4;overflow=hidden;points=[[0,0.5],[1,0.5]];portConstraint=eastwest;rotatable=0;whiteSpace=wrap;html=1;fillColor=#0050ef;strokeColor=#001DBC;fontColor=#ffffff;" vertex="1" parent="1">
          <mxGeometry x="370" y="276" width="160" height="24" as="geometry" />
        </mxCell>
        <mxCell id="JckBF_CulE6L3QhNgT-t-8" value="&lt;font style=&quot;font-size: 20px;&quot;&gt;Fact Table&lt;/font&gt;" style="text;strokeColor=none;fillColor=none;align=left;verticalAlign=top;spacingLeft=4;spacingRight=4;overflow=hidden;rotatable=0;points=[[0,0.5],[1,0.5]];portConstraint=eastwest;whiteSpace=wrap;html=1;" vertex="1" parent="1">
          <mxGeometry x="120" y="150" width="160" height="30" as="geometry" />
        </mxCell>
        <mxCell id="JckBF_CulE6L3QhNgT-t-9" value="&lt;font style=&quot;font-size: 20px;&quot;&gt;DIM TABLE&lt;/font&gt;" style="text;strokeColor=none;fillColor=none;align=left;verticalAlign=top;spacingLeft=4;spacingRight=4;overflow=hidden;rotatable=0;points=[[0,0.5],[1,0.5]];portConstraint=eastwest;whiteSpace=wrap;html=1;" vertex="1" parent="1">
          <mxGeometry x="377.5" y="120" width="160" height="30" as="geometry" />
        </mxCell>
        <mxCell id="JckBF_CulE6L3QhNgT-t-11" value="&lt;font style=&quot;font-size: 20px;&quot;&gt;DIM TABLE&lt;/font&gt;" style="text;strokeColor=none;fillColor=none;align=left;verticalAlign=top;spacingLeft=4;spacingRight=4;overflow=hidden;rotatable=0;points=[[0,0.5],[1,0.5]];portConstraint=eastwest;whiteSpace=wrap;html=1;" vertex="1" parent="1">
          <mxGeometry x="373.75" y="350" width="160" height="30" as="geometry" />
        </mxCell>
      </root>
    </mxGraphModel>
  </diagram>
</mxfile>
